PathFileType	4	(X/Y/Z)	C:/Users/opensim2020/Desktop/walking_exp_matlab/subject01_walking12_straight_04.trc																																																																																																																																		
DataRate	CameraRate	NumFrames	NumMarkers	Units	OrigDataRate	OrigDataStartFrame	OrigNumFrames																																																																																																																														
100	100	4	44	mm	100	2393	172																																																																																																																														
Frame#	Time	LFHD			RFHD			LBHD			RBHD			C7			T10			CLAV			STRN			RBAK			LSHO			LUPA			LELB			LFRM			LWRA			LWRB			LFIN			RSHO			RUPA			RELB			RFRM			RWRA			RWRB			RFIN			LASI			RASI			LPSI			RPSI			LTHI			LKNE			LTIB			LANK			LHEE			LTOE			RTHI			RKNE			RTIB			RANK			RHEE			RTOE			*39			*40			*41			*42			*43		
		X1	Y1	Z1	X2	Y2	Z2	X3	Y3	Z3	X4	Y4	Z4	X5	Y5	Z5	X6	Y6	Z6	X7	Y7	Z7	X8	Y8	Z8	X9	Y9	Z9	X10	Y10	Z10	X11	Y11	Z11	X12	Y12	Z12	X13	Y13	Z13	X14	Y14	Z14	X15	Y15	Z15	X16	Y16	Z16	X17	Y17	Z17	X18	Y18	Z18	X19	Y19	Z19	X20	Y20	Z20	X21	Y21	Z21	X22	Y22	Z22	X23	Y23	Z23	X24	Y24	Z24	X25	Y25	Z25	X26	Y26	Z26	X27	Y27	Z27	X28	Y28	Z28	X29	Y29	Z29	X30	Y30	Z30	X31	Y31	Z31	X32	Y32	Z32	X33	Y33	Z33	X34	Y34	Z34	X35	Y35	Z35	X36	Y36	Z36	X37	Y37	Z37	X38	Y38	Z38	X39	Y39	Z39	X40	Y40	Z40	X41	Y41	Z41	X42	Y42	Z42	X43	Y43	Z43	X44	Y44	Z44
																																																																																																																																					
22	0.21	-680.09064	1659.39233	-1535.72375	-665.71661	1662.58252	-1423.5365	-799.41541	1623.25159	-1527.95093	-787.09094	1625.29602	-1407.83118	-847.82623	1428.03174	-1477.61108	-892.98547	1136.33228	-1450.54187	-705.16223	1355.45605	-1483.95166	-668.54486	1199.94714	-1492.40796	-902.2337	1235.62646	-1389.53125	-775.84778	1388.6123	-1639.96082	-797.91418	1212.2738	-1732.90051	-786.71637	1060.21985	-1755.96863	-700.98499	990.42163	-1800.38684	-570.40094	944.45068	-1812.08765	-615.48096	907.11542	-1825.02991	-542.92371	882.52209	-1857.56128	-757.18457	1389.44312	-1329.05823	-843.57397	1204.33875	-1222.45947	-866.89996	1082.79871	-1216.46741	-869.69464	963.42389	-1183.28491	-827.05811	828.07043	-1204.26221	-865.56293	842.29303	-1160.87512	-853.8941	756.15784	-1165.7395	-746.4765	926.53656	-1585.74927	-699.56677	927.53851	-1372.23511	-915.45233	942.45166	-1490.15576	-884.07483	938.82037	-1349.36853	-859.09601	606.46503	-1623.9873	-906.38947	477.58725	-1605.83301	-1017.47217	321.64334	-1598.47852	-1102.78906	116.85844	-1535.84021	-1143.60974	106.16123	-1475.92407	-972.88025	36.7948	-1548.96655	-677.86902	600.39471	-1308.44812	-622.40393	458.85306	-1349.24292	-612.02747	285.35944	-1341.96265	-556.22534	84.36575	-1393.31287	-587.62042	30.76322	-1444.50745	-412.15631	92.47652	-1400.0343	-675.13129	1697.05981	-1445.44287	-1973.29895	1023.43414	3101.93628	-2012.49854	1021.95923	3140.81226	NaN	NaN	NaN	NaN	NaN	NaN
23	0.22	-669.18469	1658.48547	-1534.56982	-654.67462	1661.63794	-1422.3988	-788.46332	1622.21716	-1526.57227	-775.91345	1624.30237	-1406.47595	-836.55328	1426.84119	-1476.40515	-880.89215	1134.90259	-1450.07275	-693.80298	1354.62378	-1482.97058	-656.75775	1199.09607	-1491.75696	-890.46765	1234.08545	-1388.93823	-764.53302	1387.93799	-1638.73755	-786.83685	1211.92676	-1732.05371	-775.58441	1060.07886	-1755.79016	-689.7417	990.70892	-1800.65295	-559.04633	945.02094	-1812.75854	-604.08508	907.66534	-1825.75769	-531.44208	883.35724	-1858.4657	-745.8988	1388.06628	-1328.02368	-832.19257	1202.62927	-1221.86499	-855.53937	1081.17664	-1216.25525	-858.90381	961.94678	-1183.05176	-817.21393	826.33783	-1204.17761	-855.5769	840.80005	-1160.68213	-844.40314	754.43762	-1165.83423	-734.49188	925.68256	-1586.22681	-686.54248	926.63605	-1372.68872	-902.94232	941.38501	-1489.75647	-871.4624	937.47015	-1349.33875	-848.7738	606.00543	-1625.2887	-896.51685	477.37427	-1607.58362	-1010.31458	323.29446	-1600.14539	-1100.0918	120.13236	-1537.61121	-1141.45288	111.20819	-1478.05896	-972.7406	36.79858	-1549.3385	-662.20801	600.11261	-1310.42651	-608.90417	457.62872	-1350.3302	-602.52948	283.15683	-1343.13562	-551.34424	81.25388	-1394.79504	-584.37195	29.87555	-1445.82825	-407.34842	86.33332	-1400.06531	-664.08783	1696.17847	-1444.33374	-1973.11987	1023.89465	3102.00488	-2012.51038	1022.08142	3140.80371	NaN	NaN	NaN	NaN	NaN	NaN
24	0.23	-658.38391	1657.53711	-1533.45044	-643.5423	1660.797	-1421.27271	-777.54089	1621.2019	-1525.12549	-764.87836	1623.36768	-1405.13855	-825.32825	1425.55823	-1475.06543	-868.59503	1133.40466	-1449.59534	-682.30853	1353.70789	-1481.76965	-644.78168	1198.3562	-1491.06543	-878.52612	1232.41187	-1388.34277	-753.27319	1387.2616	-1637.37097	-775.80365	1211.49683	-1731.00781	-764.79016	1059.92114	-1755.48584	-678.81683	990.78467	-1800.6897	-548.10193	945.34064	-1813.16516	-593.10919	907.94849	-1826.24756	-520.49292	884.08795	-1859.30334	-734.41895	1387.02075	-1326.27979	-820.67853	1200.95654	-1221.18835	-844.0238	1079.63501	-1215.87097	-847.86926	960.46045	-1182.78625	-807.26129	824.58411	-1204.17871	-845.09265	839.19049	-1160.53796	-834.59021	752.75226	-1165.76965	-721.99109	924.6991	-1586.625	-673.28351	925.74908	-1372.91895	-890.05505	940.34369	-1489.44812	-858.30353	936.04156	-1349.38586	-838.06488	605.68506	-1626.67896	-885.86572	476.89523	-1609.3595	-1002.22058	325.51218	-1602.44238	-1097.17444	123.80547	-1539.6665	-1138.78052	116.66083	-1480.2312	-972.47028	36.76471	-1549.62366	-647.01392	599.68396	-1312.25562	-595.6958	456.31708	-1351.30237	-593.75195	280.9321	-1344.55444	-547.6601	78.6354	-1396.30298	-582.93829	28.78097	-1447.24915	-404.24686	79.22279	-1400.1394	-653.19159	1695.23523	-1443.09888	-1973.12671	1023.42914	3102.06396	-2012.55359	1022.21606	3140.65552	NaN	NaN	NaN	NaN	NaN	NaN
25	0.24	-647.59204	1656.69824	-1532.21631	-632.55963	1659.96375	-1420.0105	-766.65161	1620.19934	-1523.56848	-753.70459	1622.41516	-1403.56946	-814.16724	1424.24866	-1473.4541	-856.15961	1131.85291	-1449.01025	-670.81317	1352.84473	-1480.44409	-632.72003	1197.74768	-1490.25684	-866.40082	1230.57825	-1387.61523	-742.03271	1386.5907	-1635.89087	-764.82867	1211.19263	-1730.08667	-754.15308	1059.49548	-1754.91003	-668.20935	990.75616	-1800.66602	-537.50714	945.36298	-1813.37085	-582.46216	907.99652	-1826.53271	-509.81531	884.20477	-1859.65833	-722.97083	1385.57727	-1325.05994	-809.10504	1199.24854	-1220.47375	-832.37439	1078.10547	-1215.15271	-836.60663	958.97784	-1182.49878	-796.15863	823.02466	-1203.8009	-834.21289	837.70239	-1160.28699	-824.20782	751.32617	-1165.73022	-709.02527	923.73193	-1586.96448	-659.86835	924.89557	-1373.17273	-877.00964	939.38507	-1489.22937	-844.83344	934.57324	-1349.27759	-826.58099	605.23132	-1628.0144	-874.4809	476.31021	-1611.34399	-994.17261	326.80887	-1604.05725	-1093.97437	128.02574	-1542.14844	-1135.58325	122.4956	-1482.62976	-972.13477	36.61996	-1549.82971	-631.67554	599.14734	-1314.09595	-583.35089	454.66779	-1351.31897	-586.1217	278.3577	-1346.24023	-544.16168	76.1187	-1398.50659	-581.45062	29.53465	-1449.48145	-400.79175	70.3095	-1399.25037	-642.19543	1694.43335	-1441.84656	-1972.99756	1024.04028	3101.97485	-2012.61267	1022.18719	3140.72607	NaN	NaN	NaN	NaN	NaN	NaN
